<?xml version="1.0" encoding="utf-8"?>
<!-- Svg Vector Icons : http://www.onlinewebfonts.com/icon -->
<!DOCTYPE svg PUBLIC "-//W3C//DTD SVG 1.1//EN" "http://www.w3.org/Graphics/SVG/1.1/DTD/svg11.dtd">
<svg version="1.1" xmlns="http://www.w3.org/2000/svg" xmlns:xlink="http://www.w3.org/1999/xlink" x="0px" y="0px" viewBox="0 0 256 256" enable-background="new 0 0 256 256" xml:space="preserve">
<metadata> Svg Vector Icons : http://www.onlinewebfonts.com/icon </metadata>
<g><g><path fill="#000000" d="M128,246c-65.1,0-118-52.9-118-118C10,62.9,62.9,10,128,10c65.1,0,118,52.9,118,118C246,193.1,193.1,246,128,246z M128,26.9C72.3,26.9,26.9,72.3,26.9,128S72.3,229.1,128,229.1S229.1,183.7,229.1,128S183.7,26.9,128,26.9z"/><path fill="#000000" d="M139.9,128.4l36.4-36.1c3.3-3.3,3.3-8.6,0.1-11.9c-3.3-3.3-8.6-3.3-11.9-0.1L128,116.4L92,80.4c-3.3-3.3-8.6-3.3-11.9,0c-3.3,3.3-3.3,8.6,0,11.9l35.9,36l-36.2,35.8c-3.3,3.3-3.3,8.6-0.1,11.9c1.7,1.7,3.8,2.5,6,2.5c2.1,0,4.3-0.8,5.9-2.4l36.2-35.8l36.5,36.7c1.6,1.7,3.8,2.5,6,2.5c2.2,0,4.3-0.8,5.9-2.5c3.3-3.3,3.3-8.6,0-11.9L139.9,128.4z"/></g></g>
</svg>